<svg xmlns="http://www.w3.org/2000/svg" width="26" height="26" viewBox="0 0 26 26">
  <path id="face_FILL0_wght400_GRAD0_opsz48" d="M12.9,20.152a1.721,1.721,0,1,1,1.251-.5,1.7,1.7,0,0,1-1.251.5Zm8.222,0a1.721,1.721,0,1,1,1.251-.5,1.7,1.7,0,0,1-1.251.5ZM17,28.05a10.66,10.66,0,0,0,7.832-3.218A10.66,10.66,0,0,0,28.05,17a10.475,10.475,0,0,0-.13-1.658,12.836,12.836,0,0,0-.325-1.495,8.971,8.971,0,0,1-1.414.228q-.764.065-1.576.065a14.04,14.04,0,0,1-5.964-1.3,13.462,13.462,0,0,1-4.794-3.7,13.5,13.5,0,0,1-3.169,4.6A14.8,14.8,0,0,1,5.95,16.772V17a10.66,10.66,0,0,0,3.217,7.832A10.66,10.66,0,0,0,17,28.05ZM17,30a12.659,12.659,0,0,1-5.07-1.024A12.98,12.98,0,0,1,5.024,22.07a13.066,13.066,0,0,1,0-10.14A12.98,12.98,0,0,1,11.93,5.024a13.066,13.066,0,0,1,10.14,0,12.98,12.98,0,0,1,6.906,6.906,13.066,13.066,0,0,1,0,10.14,12.98,12.98,0,0,1-6.906,6.906A12.659,12.659,0,0,1,17,30ZM14.01,6.372a18.576,18.576,0,0,0,5.281,4.582A11.523,11.523,0,0,0,24.6,12.19q.78,0,1.235-.032a4.823,4.823,0,0,0,1.007-.195A12.376,12.376,0,0,0,22.866,7.64,10.279,10.279,0,0,0,17,5.95a10.082,10.082,0,0,0-1.658.13,11.5,11.5,0,0,0-1.332.292ZM6.242,14.465A10.56,10.56,0,0,0,9.8,11.816a11.715,11.715,0,0,0,2.844-4.989,10.461,10.461,0,0,0-4.274,3.234A13.51,13.51,0,0,0,6.242,14.465ZM14.01,6.372ZM12.645,6.828Z" transform="translate(-4 -4)" fill="#8358e8"/>
</svg>
