<svg xmlns="http://www.w3.org/2000/svg" width="24" height="31.5" viewBox="0 0 24 31.5">
  <path id="lock_FILL0_wght400_GRAD0_opsz48_1_" data-name="lock_FILL0_wght400_GRAD0_opsz48 (1)" d="M10.25,33.5A2.241,2.241,0,0,1,8,31.25V14.975a2.241,2.241,0,0,1,2.25-2.25h2.625v-3.6a6.869,6.869,0,0,1,2.081-5.044A6.869,6.869,0,0,1,20,2a6.869,6.869,0,0,1,5.044,2.081,6.869,6.869,0,0,1,2.081,5.044v3.6H29.75A2.241,2.241,0,0,1,32,14.975V31.25a2.241,2.241,0,0,1-2.25,2.25Zm0-2.25h19.5V14.975H10.25ZM20,26a2.816,2.816,0,0,0,2.044-.825,2.679,2.679,0,0,0,.844-1.987,2.952,2.952,0,0,0-.844-2.044,2.733,2.733,0,0,0-4.088,0,2.952,2.952,0,0,0-.844,2.044,2.679,2.679,0,0,0,.844,1.988A2.816,2.816,0,0,0,20,26ZM15.125,12.725h9.75v-3.6a4.7,4.7,0,0,0-1.425-3.45,4.889,4.889,0,0,0-6.9,0,4.7,4.7,0,0,0-1.425,3.45ZM10.25,31.25v0Z" transform="translate(-8 -2)" fill="#7b7b7b"/>
</svg>
