<svg xmlns="http://www.w3.org/2000/svg" width="22" height="27.5" viewBox="0 0 22 27.5">
  <path id="notifications_FILL0_wght400_GRAD0_opsz48" d="M8,27.375V25.313h2.887V14.794a8.3,8.3,0,0,1,1.7-5.139,7.333,7.333,0,0,1,4.486-2.836v-1a1.689,1.689,0,0,1,.567-1.306,2.046,2.046,0,0,1,2.716,0,1.689,1.689,0,0,1,.567,1.306v1a7.4,7.4,0,0,1,4.5,2.836,8.244,8.244,0,0,1,1.719,5.139V25.313H30v2.063ZM19,17.234ZM19,31.5a2.666,2.666,0,0,1-1.925-.808,2.621,2.621,0,0,1-.825-1.942h5.5A2.758,2.758,0,0,1,19,31.5Zm-6.05-6.187H25.084V14.794a5.958,5.958,0,0,0-1.753-4.331,5.786,5.786,0,0,0-4.3-1.787,5.842,5.842,0,0,0-4.314,1.788,5.928,5.928,0,0,0-1.77,4.331Z" transform="translate(-8 -4)" fill="#7b7b7b"/>
</svg>
