<svg xmlns="http://www.w3.org/2000/svg" width="27" height="27" viewBox="0 0 27 27">
  <path id="preview_FILL0_wght400_GRAD0_opsz48" d="M8.25,33A2.241,2.241,0,0,1,6,30.75V8.25A2.241,2.241,0,0,1,8.25,6h22.5A2.241,2.241,0,0,1,33,8.25v22.5A2.241,2.241,0,0,1,30.75,33Zm0-2.25h22.5V11.25H8.25ZM19.5,26.813A9.289,9.289,0,0,1,14.138,25.2a9.409,9.409,0,0,1-3.45-4.2,9.409,9.409,0,0,1,3.45-4.2A9.289,9.289,0,0,1,19.5,15.188,9.289,9.289,0,0,1,24.862,16.8a9.409,9.409,0,0,1,3.45,4.2,9.409,9.409,0,0,1-3.45,4.2A9.289,9.289,0,0,1,19.5,26.813Zm0-1.875a7.675,7.675,0,0,0,3.938-1.05A7.434,7.434,0,0,0,26.25,21a7.434,7.434,0,0,0-2.812-2.888,7.908,7.908,0,0,0-7.875,0A7.434,7.434,0,0,0,12.75,21a7.434,7.434,0,0,0,2.813,2.888A7.675,7.675,0,0,0,19.5,24.938ZM19.5,21Zm0,1.875a1.857,1.857,0,1,0-1.331-.544A1.81,1.81,0,0,0,19.5,22.875Z" transform="translate(-6 -6)" fill="#7b7b7b"/>
</svg>
